<?xml version="1.0" standalone="no"?>
<!DOCTYPE svg PUBLIC "-//W3C//DTD SVG 1.1//EN" "http://www.w3.org/Graphics/SVG/1.1/DTD/svg11.dtd" >
<svg xmlns="http://www.w3.org/2000/svg">
<metadata>Generated by IcoMoon</metadata>
<defs>
<font id="icomoon" horiz-adv-x="1024">
<font-face units-per-em="1024" ascent="960" descent="-64" />
<missing-glyph horiz-adv-x="1024" />
<glyph unicode="&#x20;" horiz-adv-x="512" d="" />
<glyph unicode="&#xe8b6;" glyph-name="search" d="M406 340.667c106 0 192 86 192 192s-86 192-192 192-192-86-192-192 86-192 192-192zM662 340.667l212-212-64-64-212 212v34l-12 12c-48-42-112-66-180-66-154 0-278 122-278 276s124 278 278 278 276-124 276-278c0-68-24-132-66-180l12-12h34z" />
<glyph unicode="&#xe900;" glyph-name="ys-allocate-funds" horiz-adv-x="1517" d="M981.096 732.444h-777.998c-111.704 0-203.098-92.576-203.098-205.724v-384.997c0-113.148 91.394-205.724 203.098-205.724h921.194c111.704 0 203.098 92.576 203.098 205.724v302.419c-245.683-51.384-346.295 152.77-346.295 288.302zM182.788 478.229c-40.62 0-72.535 32.328-72.535 73.473s31.915 73.473 72.535 73.473c40.62 0 72.535-32.328 72.535-73.473s-31.915-73.473-72.535-73.473zM664.421-5.222c-184.239 0-335.112 151.354-335.112 339.444s150.873 339.444 335.112 339.444c184.239 0 335.112-152.823 335.112-339.444s-150.873-339.444-335.112-339.444zM1146.053 52.087c-40.62 0-72.535 32.328-72.535 73.473s31.915 73.473 72.535 73.473c40.62 0 72.535-32.328 72.535-73.473s-31.915-73.473-72.535-73.473zM519.603 481.636h110.457c19.575 0 36.353-13.43 46.14-34.32h-156.597v-61.179h156.597c-8.389-19.398-26.566-32.828-44.742-32.828h-138.421l213.923-265.606 36.353 44.765-128.634 158.17h18.176c47.538 1.492 86.688 40.289 97.873 95.499h65.715v61.179h-65.715c-2.796 11.937-6.991 23.875-11.186 34.32h76.9v61.179h-276.842v-61.179zM1061.926 732.458c0 125.619 101.942 227.542 227.562 227.542 125.869 0 227.549-101.923 227.549-227.542 0-125.647-101.666-227.57-227.549-227.57-125.621 0-227.562 101.937-227.562 227.57zM1313.053 822.433c0 13.3-10.619 23.789-23.697 23.789s-23.711-10.489-23.711-23.789v-66.456h-66.229c-13.078 0-23.711-10.773-23.711-23.789 0-13.285 10.633-23.817 23.711-23.817h66.229v-66.725c0-13.002 10.074-22.98 23.166-22.98 13.078 0 24.242 9.978 24.242 22.98v66.725h66.495c13.092 0 23.711 10.518 23.711 23.817 0 13.002-10.605 23.789-23.711 23.789h-66.495v66.456z" />
<glyph unicode="&#xe901;" glyph-name="ys-asset-allocation" d="M822.993 450.528c0-37.926-6.321-73.323-18.963-106.193l184.573-77.116c22.756 58.153 34.133 120.099 34.133 184.573 0 275.595-221.235 500.622-495.565 508.207v-199.743c164.346-7.585 295.822-142.854 295.822-309.728zM512 140.8c-22.756 0-45.511 2.528-67.002 7.585l-51.832-192.158c39.19-8.849 78.38-13.906 118.835-13.906 201.007 0 381.788 116.306 463.96 298.351l-184.573 77.116c-49.304-104.928-155.496-176.988-279.388-176.988zM226.291 330.43l-187.101-69.531c58.153-144.119 178.252-254.104 326.163-298.351l51.832 192.158c-85.965 27.812-156.76 92.286-190.894 175.723zM225.027 568.099l-180.78 84.701c-27.812-64.474-41.719-131.477-41.719-202.272 0-55.625 8.849-109.985 26.548-161.817l187.101 69.531c-8.849 29.077-13.906 60.681-13.906 93.551 0 40.454 7.585 80.909 22.756 116.306zM340.069 709.689l-102.4 171.931c-78.38-49.304-140.326-118.835-182.044-201.007l180.78-84.701c25.284 45.511 60.681 84.701 103.664 113.778zM498.094 960c-82.173-2.528-163.081-24.020-235.141-64.474l102.4-171.931c39.19 21.491 84.701 34.133 131.477 36.662v199.743h1.264z" />
<glyph unicode="&#xe902;" glyph-name="ys-buysell" horiz-adv-x="1707" d="M1447.384 960h-1186.258c-143.619 0-261.126-119.026-261.126-264.502v-494.996c0-145.476 117.507-264.502 261.126-264.502h1184.393c143.619 0 261.126 119.026 261.126 264.502v494.996c1.865 145.476-115.642 264.502-259.261 264.502zM235.013 633.151c-52.225 0-93.259 41.565-93.259 94.465s41.034 94.465 93.259 94.465c52.225 0 93.259-41.565 93.259-94.465s-41.034-94.465-93.259-94.465zM854.255 11.572c-236.879 0-430.858 194.598-430.858 436.428s193.979 436.428 430.858 436.428c236.879 0 430.858-196.487 430.858-436.428s-193.979-436.428-430.858-436.428zM1473.497 85.255c-52.225 0-93.259 41.565-93.259 94.465s41.034 94.465 93.259 94.465c52.225 0 93.259-41.565 93.259-94.465s-41.034-94.465-93.259-94.465zM668.061 637.532h142.016c25.167 0 46.74-17.267 59.323-44.126h-201.339v-78.659h201.339c-10.786-24.941-34.156-42.207-57.526-42.207h-177.97l275.044-341.493 46.74 57.555-165.386 203.361h23.37c61.121 1.918 111.456 51.8 125.837 122.784h84.491v78.659h-84.491c-3.595 15.348-8.988 30.696-14.381 44.126h98.872v78.659h-355.939v-78.659z" />
<glyph unicode="&#xe903;" glyph-name="ys-currency" horiz-adv-x="1890" d="M66.465 66.428c36.765 0 66.46-29.138 66.46-65.214s29.695-65.214 66.46-65.214h1463.055c36.765 0 66.46 29.138 66.46 65.214s29.695 65.214 66.46 65.214c36.765 0 66.46 29.138 66.46 65.214v632.715c0 36.076-29.695 65.214-66.46 65.214s-66.46 29.138-66.46 65.214c0 36.076-29.695 65.214-66.46 65.214h-1463.055c-36.765 0-66.46-29.138-66.46-65.214s-29.695-65.214-66.46-65.214c-36.765 0-66.46-29.138-66.46-65.214v-632.715c-0.471-36.076 29.695-65.214 66.46-65.214zM132.925 710.244c56.561 19.888 101.339 63.827 121.607 119.328h1353.231c20.268-55.501 65.046-99.44 121.607-119.328v-524.488c-56.561-19.888-101.339-63.827-121.607-119.328h-1353.231c-20.268 55.501-65.046 99.44-121.607 119.328v524.488zM930.909 122.182c153.941 0 279.273 146.389 279.273 325.818s-125.332 325.818-279.273 325.818c-153.941 0-279.273-145.93-279.273-325.818s125.332-325.818 279.273-325.818zM930.909 644.409c83.101 0 150.762-88.109 150.762-196.409s-67.661-196.409-150.762-196.409c-83.101 0-150.762 88.109-150.762 196.409s67.661 196.409 150.762 196.409zM1453.557 401.455h71.796c31.639 0 57.193 20.797 57.193 46.545s-25.554 46.545-57.193 46.545h-71.796c-31.639 0-57.193-20.797-57.193-46.545s25.554-46.545 57.193-46.545zM243.378 401.455h71.794c31.638 0 57.192 20.797 57.192 46.545s-25.554 46.545-57.192 46.545h-71.794c-31.638 0-57.192-20.797-57.192-46.545-0.406-25.749 25.554-46.545 57.192-46.545z" />
<glyph unicode="&#xe904;" glyph-name="ys-dashboard" horiz-adv-x="970" d="M538.947 960h431.158v-323.368h-431.158zM0 367.158h431.158v592.842h-431.158zM538.947 582.737h431.158v-646.737h-431.158zM0 259.368h431.158v-323.368h-431.158z" />
<glyph unicode="&#xe905;" glyph-name="ys-delete" d="M999.424 822.579l-371.166-371.029 353.621-353.621-117.282-117.282-353.621 353.621-373.623-373.623-126.839 126.839 373.623 373.623-351.846 351.915 117.282 117.282 351.915-351.915 371.029 371.029z" />
<glyph unicode="&#xe906;" glyph-name="ys-downarrow" horiz-adv-x="2048" d="M210.683 913.897c-35.151-34.158-35.151-89.469 0-123.593l831.605-808.231c16.874-16.397 39.72-25.593 63.61-25.593s46.736 9.23 63.61 25.593l831.677 808.161c17.557 17.062 26.336 39.438 26.336 61.814s-8.779 44.717-26.336 61.814c-35.115 34.158-92.069 34.158-127.184 0l-768.103-746.382-768.031 746.452c-35.079 34.124-92.033 34.124-127.184-0.035z" />
<glyph unicode="&#xe907;" glyph-name="ys-download" horiz-adv-x="1126" d="M0 298.335v-315.074c0.002-24.744 22.36-47.258 46.933-47.261h1032.533c24.574 0.003 46.931 22.517 46.933 47.261v315.074c-0.002 24.744-22.36 47.258-46.933 47.261h-172.089c-24.795 0.347-47.602-22.29-47.602-47.261s22.806-47.614 47.602-47.261h125.156v-220.552h-938.666v220.552h125.156c24.795-0.347 47.602 22.29 47.602 47.261s-22.806 47.614-47.602 47.261h-172.089c-25.626-0.158-47.024-24.822-46.933-47.261zM563.133 243.2c-9.152 0.34-19.73 3.908-26.401 9.853l-217.61 194.021c-12.471 13.147-17.619 38.358-3.2 53.053 14.202 14.474 41.745 14.043 56.003-0.376l152.808-136.421v560.292c0 20.091 17.193 36.379 38.401 36.379s38.401-16.288 38.401-36.379v-560.292l152.808 136.421c13.126 12.414 41.638 14.708 56.003 0.376 14.363-14.328 9.774-40.445-3.201-53.053l-217.609-194.021c-7.447-6.639-16.184-9.874-26.401-9.853z" />
<glyph unicode="&#xe908;" glyph-name="ys-edit" d="M937.712 875.034c-73.955 73.919-139.236 84.966-171.554 84.966-10.506 0-16.236-1.187-16.236-1.187-7.408-1.549-15.307-5.394-20.651-10.763l-137.636-137.617c-0.026-0.026-0.026-0.026-0.026-0.026v0l-480.487-480.473c-0.052-0.052-0.103-0.052-0.155-0.103-0.052-0.026-0.052-0.103-0.103-0.155l-41.688-41.683c-5.395-5.368-9.086-12.234-10.583-19.693l-57.822-285.92c-2.581-12.724 1.42-25.887 10.583-35.050 7.331-7.33 17.217-11.33 27.388-11.33 2.556 0 5.111 0.258 7.667 0.774l285.933 57.814c7.486 1.523 14.326 5.162 19.721 10.556l41.766 41.76c0.026 0.026 0.052 0.026 0.077 0.052s0.026 0.052 0.052 0.077l480.59 480.499c0 0 0 0.026 0.026 0.026l137.636 137.617c5.834 5.833 9.654 13.395 10.893 21.525 1.394 9.162 10.893 92.063-85.39 188.333zM366.492 129.108l-173.387 173.338 425.892 425.86 173.413-173.364-425.918-425.834zM88.251 24.218l43.934 217.292 6.169 6.169 173.387-173.338-6.195-6.194-217.295-43.928zM847.159 609.685l-173.413 173.364 99.2 99.187c18.431-1.781 59.835-11.795 110.016-61.943 50.878-50.871 61.306-92.941 63.242-111.55l-99.045-99.058z" />
<glyph unicode="&#xe909;" glyph-name="ys-enhance-portfolio" horiz-adv-x="1075" d="M871.324 417.011c6.807 16.168 4.084 33.684-8.169 45.811l-114.361 109.137 62.626 145.516c6.807 16.168 2.723 33.684-9.53 45.811s-31.313 13.474-47.651 5.389l-138.867-74.105-117.084 103.747c-13.614 12.126-31.313 13.474-47.651 5.389-14.976-8.084-23.145-25.6-20.422-41.768l28.59-156.295-136.144-80.842c-14.976-9.432-21.783-25.6-19.060-43.116 4.084-16.168 17.699-29.642 34.036-32.337l104.831-13.474-422.047-417.684c-16.337-16.168-16.337-41.768 0-56.589 8.169-8.084 19.060-12.126 28.59-12.126s20.422 4.042 28.59 12.126l426.132 421.726 24.506-107.789c4.084-17.516 17.699-29.642 35.398-30.989 1.361 0 2.723 0 4.084 0 14.976 0 29.952 9.432 36.759 22.905l68.072 142.821 157.927-17.516c17.699-1.347 34.036 8.084 40.843 24.253zM701.143 345.6c-19.060-12.126-24.506-37.726-10.892-56.589l61.265-91.621c8.169-12.126 20.422-17.516 34.036-17.516 8.169 0 14.976 2.695 23.145 6.737 19.060 12.126 24.506 37.726 10.892 56.589l-61.265 91.621c-12.253 18.863-38.12 22.905-57.181 10.779zM558.192 907.453v-107.789c0-22.905 17.699-40.421 40.843-40.421s40.843 17.516 40.843 40.421v107.789c0 22.905-17.699 40.421-40.843 40.421s-40.843-17.516-40.843-40.421zM1022.444 600.253c21.783 5.389 35.398 26.947 29.952 49.853-5.446 21.558-27.229 35.032-50.373 29.642l-144.313-39.074c-21.783-5.389-35.398-26.947-29.952-49.853 4.084-18.863 21.783-30.989 39.482-30.989 2.723 0 6.807 0 9.53 1.347l145.674 39.074zM232.807 709.389c-21.783 4.042-43.566-10.779-47.651-33.684-4.084-21.558 10.892-43.116 34.036-47.158l107.554-17.516c2.723 0 4.084 0 6.807 0 19.060 0 36.759 13.474 40.843 33.684 4.084 21.558-10.892 43.116-34.036 47.158l-107.554 17.516z" />
<glyph unicode="&#xe90a;" glyph-name="ys-equity" horiz-adv-x="973" d="M225.28 9.394v187.068c0 11.626-8.852 21.138-19.67 21.138h-134.74c-10.819 0-19.67-9.512-19.67-21.138v-188.125c0-11.626 8.852-21.138 19.67-21.138h135.723c9.835 1.057 18.687 10.569 18.687 22.194zM185.94 30.532h-96.383v144.793h96.383v-144.793zM902.040 678.4h-134.961c-10.758 0-19.56-8.951-19.56-19.891v-651.419c0-10.94 8.802-19.891 19.56-19.891h134.961c10.758 0 19.56 8.951 19.56 19.891v651.419c0 10.94-8.802 19.891-19.56 19.891zM882.481 26.981h-95.842v611.637h95.842v-611.637zM535.083 332.8c-10.819 0-19.67-8.762-19.67-19.47v-306.659c0-10.709 8.852-19.47 19.67-19.47h134.74c10.819 0 19.67 8.762 19.67 19.47v306.659c0 10.709-8.852 19.47-19.67 19.47h-134.74zM650.153 26.141h-96.383v267.718h96.383v-267.718zM302.866 448c-10.758 0-19.56-8.551-19.56-19.002v-422.796c0-10.451 8.802-19.002 19.56-19.002h134.961c10.758 0 19.56 8.551 19.56 19.002v422.796c0 10.451-8.802 19.002-19.56 19.002h-134.961zM418.268 25.204h-95.842v384.792h95.842v-384.792zM71.587 505.6c5.097 0 10.193 1.906 14.271 5.717l239.543 223.899 171.248-160.064c8.155-7.622 20.387-7.622 28.541 0l224.253 209.607 31.599-34.299c4.077-3.811 9.174-6.669 15.29-6.669 1.019 0 3.058 0 4.077 0 7.135 0.953 13.251 5.717 15.29 12.386l46.889 126.717c2.039 6.669 1.019 13.339-4.077 19.055-5.097 4.764-12.232 7.622-19.367 6.669l-139.649-26.677c-7.135-0.953-13.251-5.717-15.29-12.386s-1.019-13.339 4.077-19.055l35.677-38.11-212.021-198.174-172.267 161.016c-8.155 7.622-20.387 7.622-28.541 0l-253.814-237.237c-8.155-7.622-8.155-19.055 0-26.677 4.077-3.811 9.174-5.717 14.271-5.717zM813.661 863.838l-23.445-63.835-47.909 51.449 71.353 12.386z" />
<glyph unicode="&#xe90b;" glyph-name="ys-FNO" horiz-adv-x="768" d="M740.29 579.66l-321.408 322.366c-4.322 4.332-10.193 6.774-16.322 6.774h-323.712c-12.727 0-23.040-10.313-23.040-23.040v-875.52c0-12.727 10.313-23.040 23.040-23.040h645.12c12.727 0 23.040 10.313 23.040 23.040v553.154c0 6.101-2.424 11.944-6.718 16.266zM424.448 831.174l244.206-244.934h-244.206v244.934zM101.888 33.28v829.44h276.48v-299.52c0-12.727 10.313-23.040 23.040-23.040h299.52v-506.88h-599.040zM240.128 83.968c-12.727 0-23.040 10.313-23.040 23.040v214.272c0 12.727 10.313 23.040 23.040 23.040s23.040-10.313 23.040-23.040v-214.272c0-12.727-10.313-23.040-23.040-23.040zM401.408 83.968c-12.727 0-23.040 10.313-23.040 23.040v281.088c0 12.727 10.313 23.040 23.040 23.040s23.040-10.313 23.040-23.040v-281.088c0-12.727-10.313-23.040-23.040-23.040zM562.688 83.968c-12.727 0-23.040 10.313-23.040 23.040v354.816c0 12.727 10.313 23.040 23.040 23.040s23.040-10.313 23.040-23.040v-354.816c0-12.727-10.313-23.040-23.040-23.040z" />
<glyph unicode="&#xe90c;" glyph-name="ys-fullscreen" d="M667.41 850.007l172.086 1.774-209.342-211.116 74.511-74.511 211.116 211.116-1.774-173.86h106.445l3.548 356.59-356.59-3.548zM356.59 44.219h-172.086l209.342 209.342-74.511 76.286-211.116-211.116 1.774 172.086-106.445 1.774-3.548-356.59 356.59 1.774z" />
<glyph unicode="&#xe90d;" glyph-name="ys-graph" horiz-adv-x="1775" d="M1774.933 960l-563.028-61.709 199.665-196.015-389.616-382.451-370.476 363.685-651.479-639.52 110.014-107.99 541.465 531.508 370.476-363.685 499.629 490.463 190.484-186.959z" />
<glyph unicode="&#xe90e;" glyph-name="ys-graph01" horiz-adv-x="1216" d="M46.72 960c-26.048 0-46.72-20.48-46.72-46.528v-930.944c0-26.048 20.608-46.528 46.72-46.528h1122.56c26.112 0 46.72 20.48 46.72 46.528 0.001 0.115 0.002 0.251 0.002 0.387 0 25.52-20.688 46.208-46.208 46.208-0.181 0-0.361-0.001-0.541-0.003h-1008.421l383.488 381.632 104.768-104.256c18.688-18.56 48.64-18.56 65.472 0l336.768 335.104 14.976-174.976c1.856-24.192 22.4-42.88 46.72-42.88h3.776c24.2 1.698 43.188 21.746 43.188 46.229 0 1.435-0.065 2.854-0.193 4.255l0.013-0.18-22.4 275.584c-2.326 22.736-20.305 40.628-42.878 42.801l-0.194 0.015-276.864 22.336c-1.283 0.126-2.772 0.198-4.279 0.198-24.457 0-44.494-18.922-46.272-42.925l-0.009-0.153c-0.111-1.201-0.174-2.597-0.174-4.007 0-24.503 19.020-44.564 43.101-46.225l0.144-0.008 175.872-14.848-303.104-301.632-104.704 104.256c-16.832 16.768-48.64 16.768-65.472 0l-419.008-415.168v819.2c0.001 0.096 0.001 0.21 0.001 0.324 0 25.52-20.688 46.208-46.208 46.208-0.225 0-0.45-0.002-0.675-0.005h0.034z" />
<glyph unicode="&#xe90f;" glyph-name="ys-ipo" horiz-adv-x="1205" d="M1060.571 960c-51.2 0-95.086-36.571-106.057-80.457l-413.257-138.971h-321.829c-120.686 0-219.429-98.743-219.429-219.429v-73.143c0-120.686 98.743-219.429 219.429-219.429h21.943l43.886-215.771c10.971-43.886 47.543-76.8 95.086-76.8 54.857 0 95.086 43.886 95.086 98.743v193.829h65.829l413.257-138.971c10.971-43.886 54.857-80.457 106.057-80.457 62.171 0 109.714 47.543 109.714 109.714v731.429c0 62.171-47.543 109.714-109.714 109.714zM950.857 170.057l-365.714 120.686v387.657l365.714 120.686v-629.029zM73.143 448v73.143c0 80.457 65.829 146.286 146.286 146.286h292.571v-365.714h-292.571c-80.457 0-146.286 65.829-146.286 146.286zM402.286 34.743c0-14.629-10.971-25.6-21.943-25.6s-21.943 7.314-21.943 18.286l-43.886 201.143h87.771v-193.829zM1097.143 118.857c0-21.943-14.629-36.571-36.571-36.571s-36.571 14.629-36.571 36.571v731.429c0 21.943 14.629 36.571 36.571 36.571s36.571-14.629 36.571-36.571v-731.429z" />
<glyph unicode="&#xe910;" glyph-name="ys-leftarrow" horiz-adv-x="585" d="M569.891 945.354c-20.332 19.528-53.256 19.528-73.567 0l-481.090-462.003c-9.76-9.374-15.234-22.067-15.234-35.339s5.494-25.964 15.234-35.339l481.048-462.043c10.156-9.754 23.475-14.631 36.794-14.631s26.617 4.877 36.794 14.631c20.332 19.508 20.332 51.149 0 70.658l-444.275 426.724 444.317 426.684c20.312 19.488 20.312 51.129-0.021 70.658z" />
<glyph unicode="&#xe911;" glyph-name="ys-menu-dots" horiz-adv-x="228" d="M227.556 448c0-63.716-50.062-113.778-113.778-113.778s-113.778 50.062-113.778 113.778c0 63.716 50.062 113.778 113.778 113.778s113.778-50.062 113.778-113.778zM113.778 163.556c-63.716 0-113.778-50.062-113.778-113.778s50.062-113.778 113.778-113.778c63.716 0 113.778 50.062 113.778 113.778s-50.062 113.778-113.778 113.778zM113.778 732.444c63.716 0 113.778 50.062 113.778 113.778s-50.062 113.778-113.778 113.778c-63.716 0-113.778-50.062-113.778-113.778s50.062-113.778 113.778-113.778z" />
<glyph unicode="&#xe912;" glyph-name="ys-MFS" d="M967.753 494.565c0 0.049 0 0.098 0 0.147 0 0.029-0.019 0.068-0.019 0.098-10.397 101.92-54.404 194.001-120.646 265.113-0.5 0.686-0.96 1.391-1.548 2.018-0.667 0.715-1.431 1.303-2.176 1.891-83.488 87.545-201.115 142.272-331.364 142.272-70.22 0-136.775-15.923-196.304-44.282-0.559-0.205-1.117-0.343-1.666-0.607-0.471-0.225-0.862-0.539-1.303-0.794-153.051-74.237-258.832-231.198-258.832-412.422 0-252.6 205.505-458.105 458.105-458.105s458.105 205.505 458.105 458.105c0 15.718-0.804 31.249-2.352 46.565zM829.92 720.316c50.092-58.393 84.468-130.631 96.344-210.16l-358.685-36.756 262.34 246.917zM803.061 748.86l-284.976-268.219-169.2 353.196c50.161 21.293 105.291 33.072 163.115 33.072 113.003 0 215.628-45.056 291.061-118.049zM512 29.091c-230.983 0-418.909 187.926-418.909 418.909 0 159.235 89.319 297.979 220.479 368.826l180.753-377.292c0.098-0.206 0.265-0.353 0.372-0.558 0.647-1.245 1.43-2.42 2.362-3.528 0.186-0.216 0.314-0.46 0.509-0.666 0.059-0.069 0.108-0.147 0.167-0.206 1.088-1.166 2.313-2.116 3.596-2.95 0.314-0.206 0.656-0.363 0.99-0.549 1.137-0.647 2.303-1.176 3.528-1.587 0.421-0.137 0.842-0.275 1.274-0.392 1.597-0.402 3.214-0.676 4.851-0.686 0.010 0 0.010 0 0.020 0 0 0 0 0 0.010 0v0h0.010c0.667 0 1.333 0.029 1.989 0.108l416.244 42.665c0.421-7.672 0.667-15.394 0.667-23.165 0-231.003-187.926-418.929-418.909-418.929z" />
<glyph unicode="&#xe913;" glyph-name="ys-news" d="M896 960h-512c-70.692 0-128-57.307-128-128v-704c0-35.346-28.654-64-64-64v0c-35.346 0-64 28.654-64 64v384c0 35.346-28.654 64-64 64v0c-35.346 0-64-28.654-64-64v-384c0-106.038 85.961-192 192-192h672c88.366 0 160 71.634 160 160v736c0 70.693-57.308 128-128 128zM754.526 97.684h-323.368v107.789h323.368v-107.789zM862.316 313.263h-431.158v107.789h431.158v-107.789zM754.526 474.947h-323.368v107.789h323.368v-107.789zM862.316 690.526h-431.158v107.789h431.158v-107.789z" />
<glyph unicode="&#xe914;" glyph-name="ys-notification" horiz-adv-x="878" d="M356.571 830.779c-141.962-36.521-246.857-165.338-246.857-318.765v-219.41c0-20.215-16.425-36.603-36.533-36.603-40.417 0-73.181-32.829-73.181-73.143 0-40.396 32.806-73.143 73.324-73.143h731.067c40.496 0 73.324 32.829 73.324 73.143 0 40.396-32.918 73.143-73.181 73.143-20.177 0-36.533 16.261-36.533 36.603v219.41c0 153.366-104.874 282.231-246.857 318.764v37.779c0 45.561-36.841 82.301-82.286 82.301-45.353 0-82.286-36.848-82.286-82.301v-37.777zM310.857 73.143h256c0-70.692-57.308-128-128-128s-128 57.308-128 128z" />
<glyph unicode="&#xe915;" glyph-name="ys-offers" horiz-adv-x="1280" d="M1274.093 954.566l-1061.744-225.070v-360.112l151.678-32.354v-222.726c0.049-13.826 9.639-25.83 23.226-29.072l515.704-120.037c9.020-2.15 18.539-0.099 25.838 5.568s11.575 14.326 11.608 23.504v220.85l333.691-70.803v810.253zM0 729.495v-360.112h151.678v360.112h-151.678zM424.698 324.369l455.033-96.593v-195.53l-455.033 105.502v186.621z" />
<glyph unicode="&#xe916;" glyph-name="ys-orderbook" horiz-adv-x="819" d="M623.256 948.946c95.774 0 173.48-79.355 173.48-177.3 0-97.806-77.706-177.161-173.48-177.161-95.91 0-173.616 79.355-173.616 177.161 0 97.945 77.706 177.3 173.616 177.3zM738.883 771.691l-29.323 0.024c0.016-24.455-9.677-46.588-25.361-62.605-15.684-16.015-37.357-25.916-61.304-25.899s-45.787 9.786-61.489 25.821l-14.8 15.377 20.624 21.062h-59.717l0.002-60.982 18.507 18.9 14.93-15.244c21.113-21.561 50.144-35.035 81.811-35.037 31.669 0 60.7 13.474 81.811 35.037 21.113 21.561 34.309 51.206 34.309 83.547zM623.647 889.869c-31.674 0-60.696-13.488-81.811-35.052s-34.323-51.201-34.323-83.547h29.311c0 24.467 9.689 46.572 25.357 62.572 15.717 16.050 37.361 25.944 61.32 25.944 23.959-0.050 45.798-9.797 61.512-25.845l14.8-15.36-20.634-21.072h59.682v60.998l-18.512-18.905-14.897 15.213c-21.113 21.563-50.135 35.052-81.806 35.052zM162.085 481.548c-17.72 0-31.895-14.811-31.895-33.325v0c0-18.514 14.176-33.325 31.895-33.325h343.761c17.72 0 31.895 14.811 31.895 33.325v0c0 18.514-14.176 33.325-31.895 33.325h-343.761zM162.085 326.029c-17.72 0-31.895-14.811-31.895-33.325v0c0-18.514 14.176-33.325 31.895-33.325h343.761c17.72 0 31.895 14.811 31.895 33.325v0c0 18.514-14.176 33.325-31.895 33.325h-343.761zM162.085 170.511c-17.72 0-31.895-14.811-31.895-33.325v0c0-18.514 14.176-33.325 31.895-33.325h223.267c17.72 0 31.895 14.811 31.895 33.325v0c0 18.514-14.176 33.325-31.895 33.325h-223.267zM84.119 811.1h318.953c0-11.108 0-22.217 0-33.325 0-129.599 99.23-236.981 223.267-236.981 14.176 0 24.807 3.703 35.439 3.703v-518.396c0-44.434-35.439-81.462-77.966-81.462h-499.693c-42.527 0-77.966 37.028-77.966 81.462v703.537c0 44.434 35.439 81.462 77.966 81.462z" />
<glyph unicode="&#xe917;" horiz-adv-x="890" d="M607.944 297.338v-68.118h16.829c26.847 0 30.72 21.727 30.72 34.861 0 8.815-2.716 33.258-33.837 33.258h-13.713zM470.15 297.338v-28.36h16.607c11.175 0 22.929 0.757 22.929 14.87 0 12.733-9.795 13.535-20.391 13.535h-19.144z" />
<glyph unicode="&#xe918;" horiz-adv-x="890" d="M817.953 411.047h-15.271v274.254l-245.448 274.343h-418.771c-71.97-0.101-130.284-58.43-130.36-130.397v-732.479c0.101-71.955 58.405-130.258 130.35-130.36h533.826c71.974 0.076 130.303 58.389 130.404 130.35v31.531h15.271c36.063 0 65.224 29.251 65.224 65.269v152.264c0 36.063-29.162 65.224-65.224 65.224zM574.419 847.271l127.688-142.826h-127.777v142.826zM740.53 96.768c0-37.621-30.586-68.252-68.252-68.252h-533.816c-37.674 0.051-68.201 30.578-68.252 68.247v732.477c0 37.665 30.631 68.252 68.252 68.252h373.805v-255.11h228.263v-231.335h-324.964c-36.063 0-65.269-29.206-65.269-65.224v-152.264c0-36.063 29.206-65.269 65.269-65.269h325.009v-31.521zM698.591 263.502c0-42.874-22.706-70.077-71.457-70.077h-62.241v139.709h70.656c46.57 0 63.043-34.46 63.043-69.677zM550.378 285.407c0-33.837-22.706-49.731-54.762-49.731h-25.466v-42.296h-43.097v139.798h72.036c37.977 0 51.289-27.782 51.289-47.772zM825.255 297.338h-65.002v-17.408h55.786v-33.302h-55.786v-53.248h-43.053v139.798h108.054v-35.84z" />
<glyph unicode="&#xe919;" glyph-name="ys-portfolio" horiz-adv-x="838" d="M741.143 799.977h-161.094c0 88.436-72.145 160.023-161.14 160.023s-161.14-71.633-161.14-160.023h-161.094c-0.097 0-0.212 0.001-0.327 0.001-53.081 0-96.137-42.925-96.348-95.957v-672.043c0-52.969 43.287-95.977 96.675-95.977h644.468c0.097 0 0.212-0.001 0.326-0.001 53.098 0 96.164 42.952 96.348 96.006v671.995c-0.185 53.072-43.251 96.024-96.349 96.024-0.115 0-0.229 0-0.344-0.001h0.018zM418.909 820.364c25.706 0 46.545-20.839 46.545-46.545s-20.839-46.545-46.545-46.545v0c-25.706 0-46.545 20.839-46.545 46.545s20.839 46.545 46.545 46.545v0zM651.636 153.181c0-17.129-15.639-30.999-34.909-30.999h-349.091c-19.27 0-34.909 13.871-34.909 30.999v30.999c0.14 77.498 54.272 146.804 135.959 173.987-53.062 29.137-77.871 86.063-60.835 139.357 17.082 53.341 71.959 90.112 134.33 90.112s117.248-36.771 134.33-90.112c17.036-53.295-7.773-110.22-60.835-139.357 81.687-27.183 135.82-96.489 135.959-173.987v-30.999z" />
<glyph unicode="&#xe91a;" glyph-name="ys-recommendations" horiz-adv-x="970" d="M215.579-64h567.691c61.081 0 113.179 40.96 123.958 97.28l62.877 325.973c0 1.707 0 1.707 0 3.413v34.133c0 66.56-55.691 119.467-125.754 119.467h-341.333v324.267c0 66.56-55.691 119.467-125.754 119.467v0c-7.186 0-14.372-5.12-17.965-11.947l-143.719-465.92v-546.133zM161.684 474.947h-145.516c-9.701 0-16.168-6.737-16.168-16.842v-505.263c0-10.105 6.467-16.842 16.168-16.842h145.516v538.947z" />
<glyph unicode="&#xe91b;" glyph-name="ys-rightarrow" horiz-adv-x="585" d="M15.252 945.354c20.332 19.528 53.256 19.528 73.567 0l481.090-462.003c9.76-9.374 15.234-22.067 15.234-35.339s-5.494-25.964-15.234-35.339l-481.048-462.043c-10.156-9.754-23.475-14.631-36.794-14.631s-26.617 4.877-36.794 14.631c-20.332 19.508-20.332 51.149 0 70.658l444.275 426.724-444.317 426.684c-20.312 19.488-20.312 51.129 0.021 70.658z" />
<glyph unicode="&#xe91c;" glyph-name="ys-rupee" horiz-adv-x="614" d="M492.77-2.905l0.115 0.105-284.575 367.888c2.963-0.103 5.938-0.154 8.924-0.154 138.831 0 253.572 111.887 271.77 257.069h125.395v95.211h-127.513c-9.669 56.392-34 107.194-68.541 147.577h196.054v95.211h-614.4v-95.211h257.64c68.67-16.452 123.126-73.959 140.372-147.577h-398.013v-95.211h399.071c-18.937-89.968-93.16-157.098-181.837-157.098-43.953 0-84.356 16.492-116.235 44.083l-2.367-2.112-0.676 0.874-67.237-61.2 0.121-0.156-1.158-1.033c2.629-2.674 5.308-5.292 8.033-7.853l388.057-501.394h123.216l-56.218 60.983z" />
<glyph unicode="&#xe91d;" glyph-name="ys-tradebook" horiz-adv-x="819" d="M640.658 948.946c95.774 0 173.48-79.355 173.48-177.3 0-97.806-77.706-177.161-173.48-177.161-95.91 0-173.616 79.355-173.616 177.161 0 97.945 77.706 177.3 173.616 177.3zM745.16 846.104c-5.703 5.639-14.807 5.496-20.333-0.336l-111.31-117.407-57.773 54.17c-5.85 5.488-14.947 5.089-20.316-0.885s-4.984-15.264 0.867-20.747l68.085-63.841c2.757-2.585 6.245-3.868 9.721-3.868 3.763 0 7.518 1.498 10.337 4.468l121.052 127.682c5.526 5.828 5.378 15.125-0.329 20.764zM179.487 481.548c-17.72 0-31.895-14.811-31.895-33.325v0c0-18.514 14.176-33.325 31.895-33.325h343.761c17.72 0 31.895 14.811 31.895 33.325v0c0 18.514-14.176 33.325-31.895 33.325h-343.761zM179.487 326.029c-17.72 0-31.895-14.811-31.895-33.325v0c0-18.514 14.176-33.325 31.895-33.325h343.761c17.72 0 31.895 14.811 31.895 33.325v0c0 18.514-14.176 33.325-31.895 33.325h-343.761zM179.487 170.511c-17.72 0-31.895-14.811-31.895-33.325v0c0-18.514 14.176-33.325 31.895-33.325h223.267c17.72 0 31.895 14.811 31.895 33.325v0c0 18.514-14.176 33.325-31.895 33.325h-223.267zM101.52 811.1h318.953c0-11.108 0-22.217 0-33.325 0-129.599 99.23-236.981 223.267-236.981 14.176 0 24.807 3.703 35.439 3.703v-518.396c0-44.434-35.439-81.462-77.966-81.462h-499.693c-42.527 0-77.966 37.028-77.966 81.462v703.537c0 44.434 35.439 81.462 77.966 81.462z" />
<glyph unicode="&#xe91e;" glyph-name="ys-uparrow" horiz-adv-x="1843" d="M1816.836-37.309c35.152 35.582 35.152 93.197 0 128.743l-831.605 841.907c-16.873 17.081-39.719 26.659-63.609 26.659s-46.735-9.615-63.609-26.659l-831.678-841.835c-17.558-17.773-26.335-41.081-26.335-64.39s8.778-46.58 26.335-64.39c35.115-35.582 92.070-35.582 127.185 0l768.102 777.482 768.031-777.554c35.078-35.545 92.033-35.545 127.183 0.036z" />
<glyph unicode="&#xe91f;" glyph-name="ys-watchlist" d="M533.235 834.533v125.467h-82.028v-125.467c-170.792-18.971-306.769-154.947-325.74-325.74h-125.467v-82.028h125.467c18.971-170.792 154.947-306.715 325.74-325.74v-125.467h82.028v125.467c170.792 19.025 306.769 154.947 325.74 325.74h125.467v82.028h-125.467c-18.971 170.792-154.947 306.769-325.74 325.74zM492.221 180.628c-158.343 0-287.151 128.808-287.151 287.151s128.808 287.151 287.151 287.151c158.343 0 287.151-128.808 287.151-287.151s-128.808-287.151-287.151-287.151zM651.48 472.576c0-90.605-73.45-164.056-164.056-164.056s-164.056 73.45-164.056 164.056c0 90.605 73.45 164.056 164.056 164.056s164.056-73.45 164.056-164.056z" />
<glyph unicode="&#xe920;" glyph-name="yes-product-buysell" d="M498.46 663.211v-674.304l-415.972 119.239v343.609l325.177-18.66zM921.6 678.571l-390.315 23.893 96.711-247.751 390.258 23.836zM525.596 663.211l90.738-230.116 325.177 18.603v-343.552l-415.915-119.239zM102.4 678.571l-96.711-200.021 390.372-23.893 96.711 247.751zM503.694 956.587h-95.004v-241.436l95.004 5.803zM379.904 818.062h-95.004v-110.478l95.004 5.803zM751.388 949.077h-95.004v-234.496l95.004-5.803zM623.957 898.503h-87.836v-176.583l87.836-5.348z" />
<glyph unicode="&#xe921;" glyph-name="ys-research-report" horiz-adv-x="1126" d="M1126.4 905.267v-675.584c-0.245-93.223-67.139-170.75-155.533-187.461l-1.19-0.187-656.128-106.035c-16.742 0-32.614 7.526-43.213 20.48-7.665 9.588-12.299 21.889-12.299 35.273 0 0.397 0.004 0.794 0.012 1.189l-0.001-0.059v126.618c0.026 4.873 3.981 8.813 8.857 8.813 0.488 0 0.967-0.039 1.434-0.115l-0.051 0.007c30.003-4.506 60.467-4.506 90.419 0 0.4 0.063 0.862 0.1 1.333 0.1 4.893 0 8.871-3.923 8.959-8.795v-40.046l405.043 199.68c7.173 3.61 15.632 5.724 24.585 5.724 10.882 0 21.035-3.123 29.611-8.522l-0.231 0.136c16.282-10.086 26.163-27.904 26.112-47.053 0.051-22.528 9.626-43.93 26.368-59.085s39.117-22.579 61.645-20.531c41.299 4.909 73.019 39.719 73.019 81.938 0 0.39-0.003 0.779-0.008 1.167l0.001-0.059v617.062h-646.246v-117.504c0-0.017 0-0.037 0-0.057 0-4.892-3.966-8.858-8.858-8.858-0.488 0-0.967 0.039-1.434 0.115l0.051-0.007c-13.595 2.149-29.272 3.376-45.235 3.376s-31.64-1.227-46.941-3.593l1.706 0.217c-0.385-0.059-0.829-0.092-1.28-0.092-4.927 0-8.925 3.976-8.96 8.895v172.803c0.376 30.336 25.056 54.784 55.446 54.784 0.037 0 0.075 0 0.112 0h757.396c0.017 0 0.036 0 0.056 0 30.372 0 55.041-24.419 55.445-54.695v-0.038zM16.691 130.56c-10.31 10.266-16.69 24.471-16.69 40.166s6.38 29.901 16.688 40.164l104.245 103.784c-18.859 31.841-30.004 70.179-30.004 111.121 0 74.717 37.116 140.764 93.916 180.711l0.702 0.468c35.631 25.152 79.957 40.202 127.798 40.202 68.158 0 129.181-30.545 170.127-78.694l0.263-0.317c32.395-38.159 52.096-87.98 52.096-142.402 0-61.22-24.929-116.617-65.19-156.594l-0.013-0.013c-40.37-39.924-95.903-64.588-157.197-64.588-41.105 0-79.619 11.092-112.712 30.446l1.058-0.572-104.294-103.885c-10.357-10.257-24.611-16.594-40.346-16.594s-29.989 6.337-40.35 16.598l0.005-0.005h-0.102zM236.749 349.594c19.652-19.515 46.728-31.577 76.621-31.577s56.969 12.061 76.627 31.583l-0.006-0.006c19.613 19.483 31.753 46.468 31.753 76.288s-12.14 56.805-31.747 76.282l-0.006 0.006c-19.652 19.515-46.728 31.577-76.621 31.577s-56.969-12.061-76.627-31.583l0.006 0.006c-19.588-19.494-31.71-46.476-31.71-76.288s12.122-56.794 31.706-76.284l0.004-0.004zM886.682 750.899h-388.71c-0.030 0-0.066 0-0.102 0-23.282 0-42.16-18.859-42.189-42.135v-0.003c0-23.245 18.944-42.086 42.291-42.086h388.71c0.030 0 0.066 0 0.103 0 23.264 0 42.13 18.83 42.189 42.081v0.006c-0.029 23.278-18.907 42.138-42.189 42.138-0.036 0-0.072 0-0.108 0h0.006zM886.682 586.445h-267.418c-0.030 0-0.066 0-0.103 0-23.264 0-42.13-18.83-42.189-42.081v-0.006c0-23.245 18.944-42.086 42.291-42.086h267.418c0.030 0 0.066 0 0.103 0 23.264 0 42.13 18.83 42.189 42.081v0.006c-0.058 23.256-18.924 42.087-42.189 42.087-0.036 0-0.072 0-0.108 0h0.006zM886.682 422.502h-245.914c-0.030 0-0.066 0-0.103 0-23.264 0-42.13-18.83-42.189-42.081v-0.006c0-23.245 18.944-42.086 42.291-42.086h245.914c0.013 0 0.028 0 0.042 0 15.517 0 29.085 8.347 36.458 20.796l0.108 0.196c3.569 6.039 5.677 13.308 5.677 21.069s-2.109 15.030-5.784 21.265l0.107-0.196c-7.474 12.674-21.057 21.043-36.595 21.043-0.004 0-0.009 0-0.013 0h0.001z" />
</font>
</defs>
</svg>
